<?xml version="1.0" encoding="iso-8859-1"?>
<!-- Generator: Adobe Illustrator 19.0.0, SVG Export Plug-In . SVG Version: 6.00 Build 0)  -->
<svg version="1.1" id="Capa_1" xmlns="http://www.w3.org/2000/svg" xmlns:xlink="http://www.w3.org/1999/xlink" x="0px" y="0px"
	 viewBox="0 0 512 512" style="enable-background:new 0 0 512 512;" xml:space="preserve">
<g>
	<g>
		<g>
			<path d="M76.8,51.2H51.2c-9.422,0.009-17.057,7.645-17.067,17.067v45.421c-0.024,6.985,4.231,13.272,10.725,15.846l25.604,10.246
				c2.016,0.806,4.167,1.22,6.338,1.221c9.427-0.002,17.067-7.644,17.067-17.071V68.267C93.857,58.845,86.222,51.21,76.8,51.2z
				 M76.8,123.933l-25.6-10.246V68.267h25.6V123.933z"/>
			<path d="M503.467,85.333H460.8c-0.009-9.422-7.645-17.057-17.067-17.067h-19.389c-2.341-4.173-6.292-7.381-11.17-8.671
				l-30.168-6.894c-3.064-10.711-12.915-18.555-24.607-18.568h-49.206c-4.686-5.23-11.488-8.525-19.061-8.533h-25.6
				c-1.719,0.002-3.376,0.263-4.941,0.737l-35.788-21.47C218.499,1.684,212.429,0.002,206.242,0h-76.171
				c-9.059-0.025-17.751,3.576-24.138,10l-2.067,2.067c-3.194,3.212-7.541,5.012-12.071,5H34.133C15.291,17.088,0.022,32.358,0,51.2
				v85.762c0.007,13.487,7.949,25.708,20.271,31.192l40.5,18c7.803,3.459,11.843,12.156,9.454,20.35
				C58.541,244.707,52.14,284.329,51.2,324.267v35.596c0.006,2.266-0.894,4.44-2.5,6.037l-12.055,12.055
				c-0.008,0.008-0.015,0.015-0.023,0.023L33.1,381.5c-4.818,4.79-7.519,11.31-7.5,18.104v69.729
				c0.028,23.553,19.114,42.639,42.667,42.667h191.1c5.055,0.005,9.997-1.491,14.2-4.3l13.7-9.133
				c7.129-4.741,11.409-12.738,11.4-21.3v-28.062c0.008-5.336-1.66-10.541-4.767-14.879l-21.625-30.271
				c-12.828-17.923-33.509-28.566-55.55-28.588h-46.058h-11.692c-4.365-0.005-8.475-2.057-11.103-5.542
				c-2.628-3.485-3.469-8.001-2.272-12.199l26.196-91.692c3.177-10.976,13.215-18.54,24.642-18.567
				c9.327-0.01,16.886-7.569,16.896-16.896v-8.704c0-1.325-0.308-2.632-0.9-3.817c-0.133-0.262-12.533-25.612,3.692-38.85h22.808
				c11.167-0.012,20.654-7.168,24.155-17.141c0.478,0.041,0.957,0.074,1.445,0.074h25.6c7.573-0.008,14.375-3.304,19.061-8.533
				H358.4c11.692-0.013,21.543-7.858,24.607-18.569l30.172-6.898c4.876-1.289,8.826-4.495,11.166-8.667h19.388
				c9.422-0.009,17.057-7.645,17.067-17.067h42.667c4.713,0,8.533-3.821,8.533-8.533C512,89.154,508.18,85.333,503.467,85.333z
				 M277.8,484.367l-13.705,9.133c-1.399,0.937-3.045,1.436-4.729,1.434h-191.1c-14.132-0.015-25.585-11.468-25.6-25.6H281.6v7.933
				C281.602,480.12,280.176,482.786,277.8,484.367z M170.667,392.533h46.058c16.53,0.017,32.04,7.997,41.663,21.438l21.621,30.271
				c1.038,1.446,1.594,3.182,1.592,4.962v3.063H42.667v-52.663c-0.006-2.266,0.894-4.44,2.5-6.037l1.033-1.033h112.775H170.667z
				 M163.364,246.142c-7.019-18.78-7.482-34.005-1.339-45.38c8.035-14.89,25.866-19.805,32.566-21.162
				c-7.142,15.367-3.112,33.565,1.709,44.257l0.112,6.542C183.303,230.443,171.295,236.439,163.364,246.142z M247.467,153.6
				c-0.006,4.71-3.823,8.527-8.533,8.533h-25.6h-17.067c-0.315-0.001-0.629,0.017-0.941,0.054
				c-1.379,0.15-33.95,4.054-48.242,30.325c-10.382,19.081-8.115,44.11,6.713,74.399l-24.609,86.13
				c-2.149,7.54-1.341,15.54,2.123,22.425H62.963c3.431-4.445,5.32-9.927,5.304-15.604v-35.596
				c0.935-38.291,7.097-76.274,18.317-112.896c4.817-16.411-3.253-33.854-18.879-40.808l-40.5-18.004
				c-6.162-2.741-10.134-8.852-10.138-15.596V51.2c0.009-9.422,7.645-17.057,17.067-17.067h57.662
				c9.059,0.025,17.751-3.576,24.138-10L118,22.067c3.194-3.212,7.541-5.012,12.071-5h76.171c3.093,0.001,6.127,0.842,8.779,2.433
				l32.807,19.682c-0.234,1.125-0.36,2.29-0.362,3.484V128v17.067V153.6z M290.133,145.067h-25.6V128h8.533
				c4.713,0,8.533-3.821,8.533-8.533s-3.821-8.533-8.533-8.533h-8.533V76.8h8.533c4.713,0,8.533-3.82,8.533-8.533
				s-3.821-8.533-8.533-8.533h-8.533V42.667h25.6c4.71,0.006,8.527,3.823,8.533,8.533v85.333
				C298.661,141.244,294.844,145.061,290.133,145.067z M358.4,136.533h-42.667v-51.2h25.6c4.713,0,8.533-3.82,8.533-8.533
				s-3.82-8.533-8.533-8.533h-25.6V51.2H358.4c4.71,0.006,8.527,3.823,8.533,8.533V128C366.927,132.71,363.11,136.527,358.4,136.533
				z M384,117.296V70.425l25.158,5.725c0.316,0.368,0.474,0.845,0.442,1.329v32.775c-0.025,0.421-0.1,0.838-0.225,1.242L384,117.296
				z M426.667,102.4V85.333h17.067l0.006,8.411c-0.001,0.041-0.006,0.081-0.006,0.122c0,0.042,0.006,0.083,0.006,0.126l0.006,8.408
				H426.667z"/>
			<path d="M213.333,51.2H128c-4.713,0-8.533,3.82-8.533,8.533s3.82,8.533,8.533,8.533h85.333c4.713,0,8.533-3.82,8.533-8.533
				S218.046,51.2,213.333,51.2z"/>
			<path d="M213.333,85.333H128c-4.713,0-8.533,3.821-8.533,8.533c0,4.713,3.82,8.533,8.533,8.533h85.333
				c4.713,0,8.533-3.821,8.533-8.533C221.867,89.154,218.046,85.333,213.333,85.333z"/>
			<path d="M213.333,119.467H128c-4.713,0-8.533,3.82-8.533,8.533c0,4.713,3.82,8.533,8.533,8.533h85.333
				c4.713,0,8.533-3.82,8.533-8.533C221.867,123.287,218.046,119.467,213.333,119.467z"/>
		</g>
	</g>
</g>
<g>
</g>
<g>
</g>
<g>
</g>
<g>
</g>
<g>
</g>
<g>
</g>
<g>
</g>
<g>
</g>
<g>
</g>
<g>
</g>
<g>
</g>
<g>
</g>
<g>
</g>
<g>
</g>
<g>
</g>
</svg>
