<?xml version="1.0" encoding="UTF-8" standalone="no"?>
<svg xmlns="http://www.w3.org/2000/svg" viewBox="0 0 153.71 121.75">
   <path fill="#ba2323" fill-rule="evenodd" d="m92.19 7.25 2.31 0.75l-2 6-2.59-0.83a3.63 3.63 0 0 0 0.38 -0.48 2.24 2.24 0 0 0 0.28 -0.54zm17.63 13.88-0.8-0.66-1.58 1.84 0.84 0.69a1.45 1.45 0 0 0 1 0.42 1.26 1.26 0 0 0 0.82 -0.49 1.17 1.17 0 0 0 0.33 -0.88 1.46 1.46 0 0 0 -0.61 -0.91zm-51.02-12.13a1.79 1.79 0 0 0 -0.62 -1 1.29 1.29 0 0 0 -1 0h-0.12a1.26 1.26 0 0 0 -0.8 0.54 1.76 1.76 0 0 0 0.12 1.19l1.11 3.27a1.8 1.8 0 0 0 0.62 1 1.29 1.29 0 0 0 1 0h0.12a1.26 1.26 0 0 0 0.8 -0.54 1.77 1.77 0 0 0 -0.12 -1.19zm53.45 9.2-0.73-0.6-1.37 1.59 0.73 0.6a1.53 1.53 0 0 0 0.95 0.42 1 1 0 0 0 0.75 -0.38 1 1 0 0 0 0.28 -0.81 1.56 1.56 0 0 0 -0.6 -0.85zm18.25 18.91l-16.17 4.32c-3.26-10-11.12-18-21.11-22.43a42.74 42.74 0 0 0 -6.06 -2.13 43.63 43.63 0 0 0 -11.43 -1.51 43.63 43.63 0 0 0 -11.43 1.51 42.75 42.75 0 0 0 -6.07 2.13c-10 4.39-17.85 12.42-21.11 22.43l-16.12-4.32c4.65-14.27 15.8-25.69 30-31.91a60.81 60.81 0 0 1 8.56 -3 62.19 62.19 0 0 1 16.16 -2.2 62.19 62.19 0 0 1 16.28 2.17 60.85 60.85 0 0 1 8.56 3c14.15 6.25 25.3 17.67 29.94 31.94zm-84.14-16.11l-1.51-1.75-1.85 1.55 0.37 0.43a1.41 1.41 0 0 1 0.46 0.92 1.43 1.43 0 0 1 -0.6 0.81 1.29 1.29 0 0 1 -0.89 0.38q-0.38 0-1-0.72l-2.34-2.81a1.06 1.06 0 0 1 0.1 -1.71 1.08 1.08 0 0 1 1.72 0.12l0.33 0.39 1.85-1.53-2.46-2.87-1.84 1.51 0.28 0.37a2.55 2.55 0 0 0 -0.82 0.24 3.45 3.45 0 0 0 -0.77 0.45 3.17 3.17 0 0 0 -1.39 2.22 4 4 0 0 0 1.2 2.63l2.13 2.48a6.59 6.59 0 0 0 1.23 1.15 2.57 2.57 0 0 0 1.22 0.47 2.67 2.67 0 0 0 1.31 -0.24 6.59 6.59 0 0 0 1.51 -1 5.18 5.18 0 0 0 1.33 -1.64 3.33 3.33 0 0 0 0.43 -1.85zm7.36-2.57-0.93-1.65-0.7 0.38l-3.09-5.48 0.46-0.25a1 1 0 0 1 0.59 -0.17 0.62 0.62 0 0 1 0.38 0.35l0.52 0.92 1.7-0.92-1.8-3.09-7.85 4.23 1.75 3.09 1.7-0.92-0.45-0.92a0.61 0.61 0 0 1 -0.1 -0.5 0.94 0.94 0 0 1 0.46 -0.4l0.46-0.25 3.12 5.51-0.7 0.38 0.93 1.65zm8.89-5.43a6.52 6.52 0 0 0 -0.35 -1.61l-1-3.08a6.6 6.6 0 0 0 -0.69 -1.5 2.48 2.48 0 0 0 -0.94 -0.88 2.65 2.65 0 0 0 -1.3 -0.27 6.45 6.45 0 0 0 -1.78 0.34h-0.12a6.44 6.44 0 0 0 -1.64 0.74 2.51 2.51 0 0 0 -0.89 1 2.44 2.44 0 0 0 -0.22 1.26 6.5 6.5 0 0 0 0.32 1.6l1 3.08a6.58 6.58 0 0 0 0.69 1.5 2.52 2.52 0 0 0 0.93 0.89 2.6 2.6 0 0 0 1.3 0.27 6.54 6.54 0 0 0 1.82 -0.34h0.12a6.37 6.37 0 0 0 1.63 -0.74 2.55 2.55 0 0 0 0.89 -1 2.39 2.39 0 0 0 0.23 -1.26zm14.46 0-0.13-1.87h-0.56l-0.45-6.3h0.56l-0.13-1.83-8.59 0.59 0.13 1.87h0.56l0.45 6.3h-0.56l0.13 1.87 3.63-0.25-0.11-1.88h-0.54l-0.46-6.26 2.42-0.17 0.45 6.3h-0.55l0.13 1.87zm6.33-1.12 3.52-6 0.6 0.07 0.23-1.86-3.4-0.41-0.23 1.86 0.57 0.07l-1.58 2.91-0.94-3.14 0.54 0.06 0.23-1.86-3.77-0.45-0.24 1.87 0.58 0.07 2 5.67a2.53 2.53 0 0 1 -0.53 0.69 0.69 0.69 0 0 1 -0.53 0.13 2.71 2.71 0 0 1 -0.43 -0.11 1.44 1.44 0 0 1 -0.42 -0.19l-0.26 2a2.43 2.43 0 0 0 0.49 0.22 3 3 0 0 0 0.56 0.12 2.8 2.8 0 0 0 1.61 -0.24 3.63 3.63 0 0 0 1.4 -1.45zm12.41 3.16-0.9-0.28 2-6 0.53 0.17l0.56-1.76-7.91-2.52-0.59 1.75 0.61 0.19-1.6 4.81a1.86 1.86 0 0 1 -0.49 0.83 0.72 0.72 0 0 1 -0.74 0.13l-0.52-0.16-1.12 3.36 1.83 0.58 0.33-1a0.66 0.66 0 0 1 0.28 -0.4 0.74 0.74 0 0 1 0.55 0l4 1.28a0.89 0.89 0 0 1 0.52 0.32 0.59 0.59 0 0 1 0 0.49l-0.33 1 1.83 0.58zm5.94 5.07a5.57 5.57 0 0 0 5.63 -5.5 5.63 5.63 0 0 0 -11.25 0 5.58 5.58 0 0 0 5.62 5.53zm11.76 1.89a2.33 2.33 0 0 0 1.07 -0.77 2.56 2.56 0 0 0 0.76 -2.22 4.34 4.34 0 0 0 -1.66 -2.23l-3.23-2.65-1.3 1.52 0.43 0.35-4.08 4.75-0.43-0.35-1.23 1.43 3.4 2.79a4.54 4.54 0 0 0 2.56 1.22 2.69 2.69 0 0 0 2.13 -1.12 2.3 2.3 0 0 0 0.34 -2.69 2.5 2.5 0 0 0 1.24 -0.03zm1.31 4 3-2.18 0.56 0.73 1.15-0.52-2.19-2.86-1.15 0.52 0.71 0.94-3 2.18zm4.18 5.41l4-2.9-0.9-1.18h-1.9l0.58-1.78-0.9-1.18-4 2.9 0.9 1.18 2.36-1.72-0.55 1.77h1.88l-2.35 1.72zm-13.9-18.67q0.5-0.71-0.83-1.6a2.68 2.68 0 0 0 -0.94 -0.41 0.79 0.79 0 0 0 -0.9 0.22q-0.26 0.37 0.11 0.9a2.85 2.85 0 0 0 0.74 0.69 2.92 2.92 0 0 0 0.92 0.42 0.79 0.79 0 0 0 0.89 -0.23zm-6.8 4.07 3.35-4.81l2.67 1.79-3.32 4.81zm17.64 41c0 14.45-4.52 27.56-11.8 37.07a42.19 42.19 0 0 1 -11.88 10.74 19.34 19.34 0 0 0 -4.82 -2.33q-0.72-0.24-1.45-0.45a38.6 38.6 0 0 0 -10.26 -1.34 34.86 34.86 0 0 0 -14 2.69 17.41 17.41 0 0 0 -2 1.06l-0.57 0.37a42.18 42.18 0 0 1 -11.84 -10.72c-7.32-9.5-11.8-22.62-11.8-37.07v-1.1l-1.4-0.52v1.62c0 14.92 4.67 28.48 12.2 38.3a43.7 43.7 0 0 0 12.11 11c0.1 0.08 0.37 0.24 0.5 0.31l1.36-0.84a16.13 16.13 0 0 1 1.86 -1 33.81 33.81 0 0 1 13.58 -2.6 37.58 37.58 0 0 1 10 1.3q0.73 0.21 1.4 0.43a14.53 14.53 0 0 1 5.25 2.71 7 7 0 0 1 0.62 -0.34 43.71 43.71 0 0 0 12.11 -11c7.53-9.82 12.2-23.37 12.2-38.3v-0.55zm13.12-7.63a16.88 16.88 0 0 0 2.23 -7.13l0.16-1.81 0.79 1.64a13.85 13.85 0 0 1 1.66 7.39c9.41-4.68 17.21-10.56 19.81-13.06-7.11 2.61-13.77 3.69-15.88 3.65 4.6-1.88 7.5-7.79 8.74-12.9-6.45 6.3-9.51 7.46-13.5 9.08-4.7 1.47-10.62 3.48-18.71 5.25l0.89 14.25a54.38 54.38 0 0 0 12.55 -3.54 16.69 16.69 0 0 1 1.26 -2.8zm-108.78-12l-2.28-0.76c-3.65-1.48-6.59-2.66-12.11-7.83 1.38 4.46 4.05 9.22 8 10.82l2.23 0.91-2.41 0.05c-2.06 0.06-7.51-0.84-13.64-2.84a100.55 100.55 0 0 0 17.45 11.18 14.4 14.4 0 0 1 1.7 -6.82l0.78-1.63 0.16 1.81a16.87 16.87 0 0 0 2.24 7.13 20.75 20.75 0 0 1 1 2.19 55.37 55.37 0 0 0 12.35 3.61l0.83-13.29c-6.78-1.53-12.05-3.2-16.3-4.55zm111.65 20.32a12.46 12.46 0 0 1 -2.44 5.33c0.8-5.87 6.81-8.41 2.3-17.24-0.78 8.52-6.24 7.57-2.77 17.84-1.79 2.21-3.32 3.84-1.89 10.61-2 1.66-3.77 2.83-3.11 9.77-2.23 1.06-4.1 1.74-4.23 8.63-2.36 0.43-4.3 0.59-5.22 7.23-2.41-0.21-4.37-0.58-6 5.6-2.53-0.89-4.53-1.83-7.1 4.81 3.89-3.43 9.55 5.84 12.17-4.74a5.62 5.62 0 0 1 -4.43 0.16c3.53-2.41 9.1 3.23 10.32-7.11a5.74 5.74 0 0 1 -4.27 1.34c3.14-3.35 9.18 0.8 9.18-9.88a6.53 6.53 0 0 1 -4 2.48c2.66-4.19 9-1.65 7.76-12.34a8 8 0 0 1 -3.57 3.55c2.09-4.91 8.51-4 6.11-14.43a10 10 0 0 1 -3.05 4.5c1.44-5.51 7.75-6.36 4.24-16.11zm-89 47.76c-1.67-6.18-3.64-5.81-6-5.6-0.93-6.66-2.93-6.8-5.26-7.24-0.13-6.89-2-7.56-4.23-8.63 0.66-6.93-1.07-8.11-3.11-9.77 1.43-6.77-0.11-8.4-1.89-10.61 3.46-10.27-2-9.32-2.77-17.84-4.51 8.84 1.5 11.37 2.3 17.24a12.46 12.46 0 0 1 -2.44 -5.33c-3.53 9.77 2.8 10.62 4.27 16.1a10 10 0 0 1 -3.05 -4.5c-2.4 10.38 4 9.52 6.11 14.43a8 8 0 0 1 -3.58 -3.51c-1.22 10.65 5.11 8.1 7.72 12.3a6.53 6.53 0 0 1 -4 -2.48c0 10.68 6 6.53 9.18 9.88a5.74 5.74 0 0 1 -4.18 -1.34c1.22 10.34 6.8 4.71 10.32 7.11a5.62 5.62 0 0 1 -4.43 -0.16c2.62 10.58 8.28 1.31 12.17 4.74-2.59-6.62-4.6-5.69-7.12-4.8zm54.16 7.92-1.34 7.57c3.34-4.44 10.05-4.24 14.12-3.63-0.36-1.07-2.87-2.49-5-2.69 0.93-1 3-1.61 5.33-1.42-3.44-3.13-9.78-1.47-13.1 0.16zm-55.85-0.18c2.34-0.19 4.4 0.38 5.33 1.42-2.13 0.2-4.63 1.63-5 2.69 4.07-0.61 10.78-0.81 14.12 3.63l-1.34-7.57c-3.35-1.63-9.65-3.29-13.11-0.17zm29.44-2.17h-0.21l0.14 1.06h0.21a0.54 0.54 0 0 0 0.36 -0.17 0.51 0.51 0 0 0 0.08 -0.42 0.53 0.53 0 0 0 -0.2 -0.4 0.58 0.58 0 0 0 -0.38 -0.06zm14.71 0.68a1.11 1.11 0 0 0 -0.37 -0.14 1.14 1.14 0 0 0 -0.39 0 1 1 0 0 0 -0.37 0.14 1.08 1.08 0 0 0 -0.3 0.28 1.16 1.16 0 0 0 -0.19 0.43 1.12 1.12 0 0 0 0 0.46 1 1 0 0 0 0.15 0.37 0.89 0.89 0 0 0 0.28 0.26 1.12 1.12 0 0 0 0.36 0.14 1.15 1.15 0 0 0 0.4 0 1 1 0 0 0 0.37 -0.14 1.08 1.08 0 0 0 0.3 -0.28 1.16 1.16 0 0 0 0.19 -0.43 1.11 1.11 0 0 0 0 -0.46 1 1 0 0 0 -0.15 -0.37 0.9 0.9 0 0 0 -0.28 -0.25zm-19.22 0 0.11 1.18 0.54-0.11-0.48-1.1zm9.19 0.51h-0.26v0.69h0.26a0.66 0.66 0 0 0 0.41 -0.09 0.32 0.32 0 0 0 0.12 -0.26 0.29 0.29 0 0 0 -0.12 -0.23 0.65 0.65 0 0 0 -0.4 -0.06zm20.31-0.25-1.23 7.52c-1.26-0.71-10.92-4.2-18.72-4.22s-17.45 3.56-18.72 4.27l-1.23-7.52a53.82 53.82 0 0 1 19.9 -4.13h0.11a53.83 53.83 0 0 1 19.9 4.13zm-26.59 2.41-2-4-2.28 0.48l0.2 4.34-2.14-1.49 0.44-2.38-1.41 0.49v1.29l-1-0.94-1.41 0.49 2.09 1.5-0.5 2.52 1.37-0.48 0.17-1.39 1.15 0.93 1.28-0.44 1.45-0.3-0.1-1.07 0.84-0.18 0.43 1zm3.6-3.08a1.57 1.57 0 0 0 -0.22 -0.62 1.49 1.49 0 0 0 -0.44 -0.46 1.85 1.85 0 0 0 -0.65 -0.26 2.59 2.59 0 0 0 -0.82 0l-1.65 0.24 0.57 4.23 1.43-0.23-0.15-1h0.27a2.68 2.68 0 0 0 0.86 -0.22 1.54 1.54 0 0 0 0.54 -0.4 1.24 1.24 0 0 0 0.26 -0.54 1.86 1.86 0 0 0 0.01 -0.69zm4.69 1.25a1.25 1.25 0 0 0 -0.13 -0.61 1.1 1.1 0 0 0 -0.37 -0.4 1.65 1.65 0 0 0 -0.55 -0.22 3.21 3.21 0 0 0 -0.68 -0.07h-0.55v-1.6h-1.42v4.26h2a3.35 3.35 0 0 0 0.68 -0.06 1.49 1.49 0 0 0 0.55 -0.23 1.13 1.13 0 0 0 0.37 -0.42 1.43 1.43 0 0 0 0.11 -0.6zm4.63 1.72l-1.26-2.36 1.54-1.9-1.64-0.13-1 1.5 0.15-1.57-1.43-0.11-0.36 4.25 1.43 0.11 0.17-1.72 0.71 1.79zm5.25-1.16a2 2 0 0 0 0 -1 2.08 2.08 0 0 0 -0.39 -0.79 2.38 2.38 0 0 0 -0.69 -0.59 3 3 0 0 0 -0.91 -0.33 3.07 3.07 0 0 0 -1 0 2.62 2.62 0 0 0 -0.89 0.28 2.33 2.33 0 0 0 -0.71 0.58 2.19 2.19 0 0 0 -0.43 0.87 2 2 0 0 0 0 1 2.06 2.06 0 0 0 0.39 0.79 2.33 2.33 0 0 0 0.69 0.59 3 3 0 0 0 0.92 0.33 3.1 3.1 0 0 0 1 0 2.61 2.61 0 0 0 0.9 -0.28 2.32 2.32 0 0 0 0.71 -0.58 2.13 2.13 0 0 0 0.44 -0.88zm4.7 0a1 1 0 0 0 -0.2 -0.46 1.58 1.58 0 0 0 -0.43 -0.37 3.07 3.07 0 0 0 -0.59 -0.28l-1.73-0.6-1.69 4 1.75 0.61a4 4 0 0 0 0.73 0.18 1.76 1.76 0 0 0 0.63 0 1.18 1.18 0 0 0 0.51 -0.25 1.32 1.32 0 0 0 0.36 -0.51 0.92 0.92 0 0 0 0.07 -0.3 1 1 0 0 0 0 -0.32 0.94 0.94 0 0 0 -0.14 -0.29 0.86 0.86 0 0 0 -0.22 -0.32 0.9 0.9 0 0 0 0.57 -0.17 1 1 0 0 0 0.34 -0.42 1 1 0 0 0 0.09 -0.52zm-2.39 1.23-0.24-0.08-0.27 0.64 0.25 0.09a0.69 0.69 0 0 0 0.42 0 0.34 0.34 0 0 0 0.21 -0.2 0.29 0.29 0 0 0 0 -0.26 0.58 0.58 0 0 0 -0.35 -0.2zm0.55-1.47l-0.11-0.07-0.28 0.65 0.17 0.06a0.66 0.66 0 0 0 0.41 0 0.34 0.34 0 0 0 0.21 -0.21 0.27 0.27 0 0 0 0 -0.3 0.7 0.7 0 0 0 -0.37 -0.14zm10.3-21.88v0.4 0.2a1.31 1.31 0 0 1 -0.12 0.49 2.89 2.89 0 0 1 -0.24 0.44 7.93 7.93 0 0 1 -1.79 1.85 0.24 0.24 0 0 0 0 0.11 0.16 0.16 0 0 0 0 0.08c0.91 0.44 0.9 0.48 0.7 1a0.84 0.84 0 0 0 -0.05 0.31v0.63l-0.62-0.15-1.41-0.34a52.41 52.41 0 0 1 -13.2 -3.07c-3.75-1.24-7.2-2.39-10.48-2.39a16.93 16.93 0 0 0 -5.7 1.63c-0.76 0.31-1.51 0.62-2.2 0.86-0.82 0.29-1.71 0.51-2.59 0.74-1.72 0.44-3.37 0.86-4.23 1.7a5.85 5.85 0 0 0 -0.63 2.6l0.11 0.16 0.09 0.14v0.17 0.46 0.45h-0.46c-1.72 0-1.85-0.27-2.51-1.56l-0.09-0.18a8.38 8.38 0 0 1 -0.39 -0.95c-0.3-0.83-0.6-1.64-1.65-1.64h-0.27-0.07-0.87l0.56-0.54-0.3-0.19c2.27-1.26 5-5.47 6.81-8.88 0.37-0.69 0.69-1.33 1-1.89s0.41-0.89 0.58-1.28c-1 0.17-2.08 0.38-3.22 0.6-3.84 0.75-8.12 1.6-11.15 0.92l-2.28-0.51 2.3-0.45a83.64 83.64 0 0 0 15.42 -4.9v-0.9s1-2.36 1.67-4c0.11-0.28 0.2-0.52 0.28-0.75a21.72 21.72 0 0 1 -3.89 2.12c-0.4 0.17-0.8 0.32-1.17 0.45a8.76 8.76 0 0 1 -2.66 0.53c-2.58 0-4.1-0.44-4.78-1.07a1.38 1.38 0 0 1 -0.29 -1.83 4 4 0 0 1 1.51 -1.36c-2.16-0.11-4.24-0.26-6.17-0.42h-0.11l0.09-1h0.06c2 0.18 4.19 0.32 6.39 0.44l1.93 0.08a13.94 13.94 0 0 1 1.45 -0.33 17.57 17.57 0 0 1 -4.69 -2c-1.45-1-2.06-2.18-1.07-3.56 1.63-2.27 3.7-1.74 5.9-0.23a35.7 35.7 0 0 1 3.53 2.95 24.31 24.31 0 0 0 4 3.19 23.81 23.81 0 0 0 -1.56 -4.69 24.09 24.09 0 0 1 -1.37 -3.93 3.3 3.3 0 0 1 1.35 -3.78 2 2 0 0 0 0.78 -1 1.5 1.5 0 0 1 -0.59 -0.05 3.73 3.73 0 0 1 -1.12 -0.67 7.26 7.26 0 0 1 -0.71 -0.61 2 2 0 0 1 -0.67 -1.39 1.54 1.54 0 0 1 0.12 -0.59 1.51 1.51 0 0 1 0.34 -0.5 1.72 1.72 0 0 1 1 -0.46c0-0.17 0-0.4-0.06-0.63v-0.26l-5.48-3.94v0.06a3.34 3.34 0 0 1 -0.3 0.32 7.55 7.55 0 0 1 -1.94 1.27 7.08 7.08 0 0 1 -2.45 0.38 10 10 0 0 1 -3.75 -0.71 4.77 4.77 0 0 1 -2.73 -2.5 3.85 3.85 0 0 1 -0.27 -1.46 4 4 0 0 1 0.4 -1.69 5.68 5.68 0 0 1 0.43 -0.76 9.32 9.32 0 0 1 3 -2.72 6.28 6.28 0 0 1 -0.9 -2.8 3.06 3.06 0 0 1 1.04 -2.54 5.62 5.62 0 0 1 2.67 -1.16 15.05 15.05 0 0 1 6.24 0.37 6.52 6.52 0 0 1 2.9 -1.14 3.88 3.88 0 0 1 1.82 0.17 2.19 2.19 0 0 1 1.3 1.21 3.2 3.2 0 0 1 0.07 1.83 4.67 4.67 0 0 1 -1.74 2.6 3.36 3.36 0 0 0 -1.26 1.86l6 5.33 0.29 0.25a7.83 7.83 0 0 1 4.19 0.47 6.31 6.31 0 0 1 3.19 2.74c1 1.77 1.13 4.22-0.29 7.25a14.72 14.72 0 0 1 6.05 3.35l0.56 0.48-0.66 0.75-0.57-0.49a14 14 0 0 0 -5.84 -3.2c-0.27 0.49-0.58 1-0.92 1.51v0.05h-0.05a3.27 3.27 0 0 1 -1.46 0.38 11 11 0 0 1 -3.08 -0.29 9.05 9.05 0 0 1 -3.76 -1.71 3 3 0 0 1 -1.08 1.33 2.48 2.48 0 0 0 -1 2.84 23.19 23.19 0 0 0 1.31 3.76 22.44 22.44 0 0 1 1.67 5.23c9.7-0.05 18.39-0.81 20.58-2.57l0.64 0.76c-2.37 1.9-11.28 2.73-21.16 2.8v0.27s0 0 0 0.05a3.83 3.83 0 0 1 -0.18 0.71c-0.09 0.28-0.22 0.61-0.36 1a21.81 21.81 0 0 1 -2.36 4.44c1-0.46 2-0.94 3-1.44a24.5 24.5 0 0 0 3 -1.83 9.86 9.86 0 0 0 2 -1.85l0.81 0.59a10.81 10.81 0 0 1 -2.18 2 25.36 25.36 0 0 1 -3.08 1.91 77.36 77.36 0 0 1 -15.62 5.79 55.65 55.65 0 0 0 7.44 -1.13c4.22-0.83 7.91-1.56 9 0 0.75 1.06-0.35 2.52-1.39 3.91a8.9 8.9 0 0 0 -1.22 1.89c-0.08 0.22 0 0.39 0.18 0.46 1.13 0.36 3.74-0.86 6.64-2.22 3.06-1.43 6.44-3 9.1-3.16a0.76 0.76 0 0 1 0.92 0.81 5.08 5.08 0 0 1 -0.38 1.62 5.58 5.58 0 0 0 -0.46 2.17c0.06 0.41 0.46 0.65 1.57 0.47a19.54 19.54 0 0 0 5.22 -2.11c2.34-1.19 4.72-2.41 6.92-2.41v1c-1.95 0-4.22 1.16-6.45 2.3a20.09 20.09 0 0 1 -5.53 2.21c-1.86 0.29-2.56-0.32-2.72-1.3a6.08 6.08 0 0 1 0.49 -2.63 7.2 7.2 0 0 0 0.32 -1.13c-2.44 0.19-5.65 1.69-8.56 3.05-3.19 1.53-5.97 2.83-7.48 2.33a1.17 1.17 0 0 1 -0.82 -1.71 9.25 9.25 0 0 1 1.36 -2.16c0.84-1.11 1.71-2.28 1.37-2.77-0.48-0.68-2.11-0.63-4.26-0.3l0.52 0.2c-0.18 0.43-0.42 1-0.71 1.57s-0.62 1.27-1 1.92a38 38 0 0 1 -5 7.41l2.29 3.49a3.86 3.86 0 0 1 0.77 -2c1.05-1 2.84-1.48 4.69-2 0.84-0.21 1.69-0.43 2.5-0.71 0.69-0.24 1.41-0.53 2.15-0.84a17.58 17.58 0 0 1 6.09 -1.7c3.44 0 7 1.17 10.8 2.44a57.39 57.39 0 0 0 11.26 2.86l1.59-2.4a13.89 13.89 0 0 1 -6.79 -3.24c-0.44-0.36-0.87-0.75-1.27-1.14s-0.79-0.79-1.16-1.2l0.5-0.42 0.26-0.22c0.35 0.38 0.72 0.77 1.1 1.14s0.79 0.74 1.22 1.09a12.55 12.55 0 0 0 6.75 3.07l1.27-1.93 0.13-0.19h0.23 0.3 0.07c0.84-0.04 0.97 0.79 0.97 1.52zm-46.04-43.54l0.2-0.21h-0.1a2.19 2.19 0 0 0 -0.36 0.13 4.64 4.64 0 0 1 -0.6 0.22 3.28 3.28 0 0 0 -0.74 0.3l-0.33 0.22a2.06 2.06 0 0 0 -0.25 0.19 2.91 2.91 0 0 1 -0.43 0.39 4.67 4.67 0 0 0 1.06 -0.24 6.29 6.29 0 0 0 1.61 -1.06zm1.1-4.81a13.13 13.13 0 0 1 -1.24 -1.13 15.73 15.73 0 0 1 -1.13 -1.31l-0.15-0.23-0.17-0.28a4 4 0 0 1 -0.58 -1.72 0.51 0.51 0 0 1 1 0 3.15 3.15 0 0 0 0.44 1.23l0.14 0.23 0.11 0.16a14.65 14.65 0 0 0 1 1.22 12.09 12.09 0 0 0 1.17 1.07 7.4 7.4 0 0 1 0.72 -0.59s0 0 0 0a5.51 5.51 0 0 1 0.46 -2c0.08-0.21 0.16-0.42 0.22-0.63a7.94 7.94 0 0 1 0.56 -1.2c0.13-0.24 0.26-0.48 0.37-0.73a7.86 7.86 0 0 1 0.52 -0.78c0.08-0.11 0.15 0.09 0.15-0.07a0.51 0.51 0 0 1 1 0 1.33 1.33 0 0 1 -0.33 0.63c-0.17 0.24-0.39 0.54-0.43 0.62-0.11 0.26-0.26 0.53-0.41 0.8a7.32 7.32 0 0 0 -0.5 1c-0.07 0.23-0.15 0.45-0.23 0.67a7.07 7.07 0 0 0 -0.32 1.05l0.22-0.13a9.21 9.21 0 0 1 0.87 -0.37 4.25 4.25 0 0 1 1.59 -2.31 3.92 3.92 0 0 0 1.48 -2.05 2.27 2.27 0 0 0 0 -1.29 1.22 1.22 0 0 0 -0.73 -0.67 2.9 2.9 0 0 0 -1.34 -0.11 5.42 5.42 0 0 0 -2.6 1.08l-0.2 0.16-0.25-0.07a14.11 14.11 0 0 0 -6 -0.42 4.63 4.63 0 0 0 -2.19 0.92 2.12 2.12 0 0 0 -0.74 1.73 5.81 5.81 0 0 0 1 2.76l0.27 0.45-0.47 0.24a8.52 8.52 0 0 0 -3.16 2.63 4.71 4.71 0 0 0 -0.35 0.63 3.08 3.08 0 0 0 -0.31 1.29 2.91 2.91 0 0 0 0.2 1.09 3.82 3.82 0 0 0 2.18 2 9 9 0 0 0 3.36 0.63h0.74a0.29 0.29 0 0 1 -0.21 -0.26 0.31 0.31 0 0 1 0.31 -0.31c0.11 0 0.06-0.18 0.14-0.26l0.05-0.06a3 3 0 0 1 0.33 -0.26l0.35-0.23a3.67 3.67 0 0 1 0.89 -0.38 4.24 4.24 0 0 0 0.52 -0.19 2.7 2.7 0 0 1 0.46 -0.16h0.12a3.83 3.83 0 0 1 -0.09 -0.67h-0.73a4.55 4.55 0 0 0 -1.3 0s0 0 0 0h-0.32-0.24c-0.16 0-0.34 0.11-0.53 0.18-0.21 0.08-0.41 0.15-0.6 0.2a4.26 4.26 0 0 0 -0.48 0.21 2.59 2.59 0 0 1 -0.89 0.32 0.31 0.31 0 1 1 0 -0.62 2.9 2.9 0 0 0 0.61 -0.25 4.62 4.62 0 0 1 0.57 -0.24c0.18 0 0.36-0.12 0.55-0.18s0.4-0.15 0.59-0.2h0.33 0.25a5.06 5.06 0 0 1 1.47 0h0.68a5.14 5.14 0 0 1 0.58 -1.84 6.13 6.13 0 0 1 0.65 -0.99zm5.91 6.46 0.09-0.18a7.51 7.51 0 0 1 3.2 -3l-5.34-4.73a3.77 3.77 0 0 0 -0.55 0.19 6.44 6.44 0 0 0 -2.47 2 4.38 4.38 0 0 0 -0.85 1.82zm1.46 7 0.05-0.06 0.28-0.36 0.24 0.39v0.06c0.7 1.07 2.38 1.82 4.07 2.21a10.4 10.4 0 0 0 2.89 0.28 2.87 2.87 0 0 0 1.11 -0.25c2.62-3.9 2.73-6.93 1.59-9a5.68 5.68 0 0 0 -2.84 -2.43 6.83 6.83 0 0 0 -0.85 -0.28c-4.59 0.11-6.62 3.43-6 7.17l-1.8-1c0 0.17-0.11 0.29-0.3 0.29a1.18 1.18 0 0 0 -0.84 0.3 0.91 0.91 0 0 0 -0.2 0.3 0.93 0.93 0 0 0 -0.07 0.36 1.43 1.43 0 0 0 0.48 1 6.61 6.61 0 0 0 0.65 0.56 3.1 3.1 0 0 0 0.94 0.51 0.59 0.59 0 0 0 0.6 0.05zm-3.93 13.64a17.48 17.48 0 0 1 2.3 0.21c-0.79-0.63-1.61-1.37-2.43-2.11a35 35 0 0 0 -3.42 -2.86c-1.73-1.19-3.33-1.64-4.5 0-0.57 0.79-0.13 1.53 0.83 2.19 1.64 1.11 4.63 2.03 7.22 2.57zm4 1.73q-1.85 0-3.71 0c-1.6 0-3.19-0.09-4.76-0.15a9.24 9.24 0 0 0 -1.66 0.66 3.24 3.24 0 0 0 -1.32 1.09 0.49 0.49 0 0 0 0.09 0.64c0.51 0.47 1.8 0.8 4.09 0.8a7.8 7.8 0 0 0 2.36 -0.52c0.37-0.13 0.74-0.27 1.11-0.42a20.25 20.25 0 0 0 3.81 -2.1zm33.77-23.71a1.25 1.25 0 0 0 -1.28 0.12c-0.9 0.88 1.12 2.34 2.3 2.73 0.04 0.01-3.11-2.71-1.02-2.85zm1.81 0.39 0.49 0.26s0-0.1 0-0.15zm-31.82 6.4h1.49a4.39 4.39 0 0 0 1.42 -0.35l0.55-0.23a8.93 8.93 0 0 0 2.33 -1.44 0.25 0.25 0 0 1 0.36 0 0.24 0.24 0 0 1 0 0.35 9.51 9.51 0 0 1 -2.48 1.54l-0.57 0.24a5 5 0 0 1 -1.6 0.37h-0.88l0.53 0.23a3.22 3.22 0 0 0 0.65 0.06 4.5 4.5 0 0 0 0.69 -0.06 5.35 5.35 0 0 0 2.73 -1.23l0.44-0.5v0.67a2.69 2.69 0 0 1 -0.78 2 2.59 2.59 0 0 1 -1.19 0.66 2.63 2.63 0 0 1 -1.34 0 5.72 5.72 0 0 1 -2.22 -1.78h-0.13a0.25 0.25 0 1 1 0 -0.49zm1.62 1.28a1.93 1.93 0 0 0 0.87 0.53 2.11 2.11 0 0 0 1.08 0 2 2 0 0 0 1.53 -1.58 6.75 6.75 0 0 1 -2.53 1 5 5 0 0 1 -0.77 0.06zm1.88-4.75a1.06 1.06 0 1 0 -1 -1.06 1 1 0 0 0 1 1.06zm-5.79 7.86-0.09 1c2.51 0.23 4.77 0.64 6.95 1a49.34 49.34 0 0 0 9.22 1.08c1.26 0 2.53-0.09 3.79-0.19s2.51-0.18 3.65-0.18c0.11 0 0.18 0.2 0.23 0.46a3.34 3.34 0 0 1 0 0.64 5.62 5.62 0 0 1 -0.06 0.7s0 0 0 0.07a6.55 6.55 0 0 0 -3.22 0.94l-0.79 0.39c-0.33 0.15-1 0.56-1.85 1a27 27 0 0 1 -4.06 2.14 23.14 23.14 0 0 1 -6.06 -0.74 47.88 47.88 0 0 1 -5.63 -2l-0.38 0.91a48.48 48.48 0 0 0 5.75 2 24.16 24.16 0 0 0 6.32 0.78c0.65 0 2.87-1.3 4.57-2.28 0.8-0.46 1.47-0.85 1.77-1l0.18-0.09-0.48 0.44a12.21 12.21 0 0 1 1.81 2.37 14.1 14.1 0 0 1 1.18 2.49 22.32 22.32 0 0 1 0.33 12.59l1 0.25a23.33 23.33 0 0 0 -0.35 -13.16 15.08 15.08 0 0 0 -1.26 -2.67 13.21 13.21 0 0 0 -1.9 -2.35l0.32-0.16a5.77 5.77 0 0 1 2.73 -0.82v0.82c0.45 0 0.88-0.8 1-1.74a6.31 6.31 0 0 0 0.07 -0.83 4.23 4.23 0 0 0 -0.06 -0.82c-0.13-0.74-0.5-1.28-1.22-1.28-1.21 0-2.46 0.09-3.72 0.18s-2.53 0.18-3.72 0.19a48.57 48.57 0 0 1 -9 -1.06c-2.17-0.42-4.4-0.81-7.02-1.07zm43.36 4.39a1 1 0 0 1 -0.75 0.62 4.41 4.41 0 0 1 -1.08 0.14 42.28 42.28 0 0 1 -8.7 -1.26 0.45 0.45 0 0 1 0.15 0.2c0.17 0.37 0 0.45-0.18 0.62a2.88 2.88 0 0 1 -1.36 1.08 2.35 2.35 0 0 1 -1.83 0.14l-0.23-0.11a6.26 6.26 0 0 0 -2.92 -0.79v-1a7.1 7.1 0 0 1 3.36 0.89l0.23 0.11a1.42 1.42 0 0 0 1 -0.15 2.57 2.57 0 0 0 0.73 -0.45 2.88 2.88 0 0 1 -1 -0.83l-0.31-0.34c-0.43-0.13-0.5-0.52-0.55-0.93l-0.42 0.18a1.49 1.49 0 0 1 -0.7 0.28 7.83 7.83 0 0 1 -0.79 0.23 10.07 10.07 0 0 1 -2.24 0.22v-0.98h0.85l-0.77-0.23c-0.85-0.26-1.66-0.53-2.44-0.79-4.16-1.43-6.85-2.93-6.6-3.86v-0.09a0.87 0.87 0 0 1 0.4 -0.41 1.85 1.85 0 0 1 0.49 -0.17 13 13 0 0 1 3.68 0.09 8.36 8.36 0 0 1 0.87 -3.74 6.31 6.31 0 0 1 3.04 -2.8 1.23 1.23 0 0 1 0 -0.68 1.15 1.15 0 0 1 0.73 -0.66 2.77 2.77 0 0 1 1 -0.14 5.15 5.15 0 0 1 1.87 0.43 2.14 2.14 0 0 1 0.15 -0.42 2.35 2.35 0 0 1 1.26 -1.14 5 5 0 0 1 1.9 -0.35 10.27 10.27 0 0 1 3.56 0.67 1.54 1.54 0 0 1 0.3 -0.12h0.09a0.81 0.81 0 0 1 0.62 0.61v-0.06a9.31 9.31 0 0 1 2.41 1.66 5 5 0 0 1 1.3 1.94 2.81 2.81 0 0 1 -0.11 2.15 3.56 3.56 0 0 1 -0.74 1s0.22 0.54 0.35 1l0.09 0.27 0.06 0.19a6.19 6.19 0 0 1 0.22 1.79 8.19 8.19 0 0 1 -0.24 2.06 2.54 2.54 0 0 1 -0.56 1.08l0.39 0.16 0.95 0.42c1.73 0.85 2.64 1.63 2.46 2.27zm-6.46-15.59s0 0.07 0 0.11 0-0.08 0-0.11zm-1.59 0.24a1.31 1.31 0 0 0 -0.24 0.49 0.46 0.46 0 0 0 0 0.36 0.71 0.71 0 0 0 0.38 0.25l0.26 0.09a1.09 1.09 0 0 0 0.44 0.1c0.08 0 0.14-0.12 0.19-0.27a1.77 1.77 0 0 0 -0.26 -1.7 2 2 0 0 0 -0.77 0.69zm4.12 11.27a7.47 7.47 0 0 0 0.22 -1.88 5.48 5.48 0 0 0 -0.18 -1.56l-0.07-0.2-0.09-0.28c-0.19-0.61-0.4-1.48-0.17-1.7a2.87 2.87 0 0 0 0.59 -0.81 2.12 2.12 0 0 0 0.07 -1.62 4.28 4.28 0 0 0 -1.11 -1.65 8.24 8.24 0 0 0 -1.73 -1.27s0-0.07 0-0.1v-0.2a3.38 3.38 0 0 1 -0.07 1.17v-0.11c2.06 1.22 2.44 3.24 1.77 3.89-0.3 0.3-2.91-1-3.34-1.16 2 0.93 2.71-0.43 1.08-2.05h-0.09-0.13a1.47 1.47 0 0 1 -0.62 -0.14l-0.22-0.08a1.16 1.16 0 0 1 -0.63 -0.44 0.9 0.9 0 0 1 -0.12 -0.71 1.78 1.78 0 0 1 0.32 -0.66 2.55 2.55 0 0 1 0.21 -0.24 9.27 9.27 0 0 0 -2.86 -0.47 4.3 4.3 0 0 0 -1.64 0.32 1.63 1.63 0 0 0 -0.88 0.78 1.61 1.61 0 0 0 -0.14 0.71s0 0 0 0.07a8.24 8.24 0 0 1 0.9 0.72l0.2 0.19 0.13 0.13a8.36 8.36 0 0 0 2 1.17l0.18 0.08 0.34 0.13c0.34 0.12 0.73 0.26 0.73 0.47s-0.11 0.27-0.35 0.27a11.73 11.73 0 0 1 -5.47 -1.82c-0.45-0.24-0.89-0.47-1.33-0.69a0.85 0.85 0 0 1 -0.31 -0.21c-0.36-0.44 0.17-0.61 0.93-0.64h0.48a4.39 4.39 0 0 0 -1 -0.16 2 2 0 0 0 -0.73 0.09 0.45 0.45 0 0 0 -0.29 0.24 0.74 0.74 0 0 0 0.05 0.51 0.39 0.39 0 0 1 -0.2 0.46 5.73 5.73 0 0 0 -3 2.56 7.75 7.75 0 0 0 -0.78 3.49l0.13 0.2a7.1 7.1 0 0 0 3.17 2.3 32.42 32.42 0 0 0 4.8 1.61h0.05a0.62 0.62 0 0 1 0.36 0.11c0.35 0.08 0.69 0.16 1 0.23s0.87 0.14 1.31 0.19a16.56 16.56 0 0 0 5.59 -0.25h0.16 0.09 0.08c0.3-0.16 0.47-0.51 0.6-0.98zm-0.67-2.82a5 5 0 0 1 -0.06 -0.65 5 5 0 0 0 -0.12 -1 4.38 4.38 0 0 1 -0.1 -0.78v-0.37h-0.37a26.11 26.11 0 0 1 -8.31 -2.2c-0.53-0.23-1-0.47-1.45-0.71a7.8 7.8 0 0 1 -1.07 -0.69l-0.11-0.09h-0.14a3.68 3.68 0 0 0 -1.12 0.67c-0.37 0.26-0.74 0.53-0.85 0.58a3.77 3.77 0 0 0 -1.31 1.27l-0.18 0.28-0.15 0.26a3.35 3.35 0 0 0 -0.24 1.4 6.59 6.59 0 0 0 0.27 1.87 2.21 2.21 0 0 0 1 1.39 1.12 1.12 0 0 0 0.49 0.11h0.45l-0.09-0.43c-0.7-3.45 0-4.72 1.16-5s3.24 0.53 5 1.21a13.38 13.38 0 0 0 3 1 4.7 4.7 0 0 1 3 1.6 4.06 4.06 0 0 1 0.38 0.52 3.33 3.33 0 0 1 0.27 0.54l0.72 1.9v-1.91a5.59 5.59 0 0 0 -0.07 -0.75zm-14.45-12.23a7.34 7.34 0 0 0 1.75 1.18l0.08-0.08-1.17-1.47a4 4 0 0 1 -0.09 -3.9l1.74-2.95a6.19 6.19 0 0 0 1 -3.58l-0.75-2.26-0.09 2.32a4.28 4.28 0 0 1 -0.4 1.57c-1 1.88-2.71 3.51-3.05 5.57a4.21 4.21 0 0 0 0.98 3.6zm0.16-6.78-0.51-0.64a1.76 1.76 0 0 1 0 -1.71l0.76-1.28a2.71 2.71 0 0 0 0.43 -1.57l-0.33-1v1a1.87 1.87 0 0 1 -0.18 0.69 9.06 9.06 0 0 0 -1.34 2.44 1.85 1.85 0 0 0 0.44 1.57 3.22 3.22 0 0 0 0.74 0.45zm-21.91 15.33a1.06 1.06 0 1 0 -1 -1.06 1 1 0 0 0 1 1.06z"/>
</svg>
