<svg fill="white" id="Layer_1" enable-background="new 0 0 64 64" height="512" viewBox="0 0 64 64" width="512" xmlns="http://www.w3.org/2000/svg"><path d="m22 50h14v2h-14z"/><path d="m42 62h13c1.7 0 3-1.3 3-3v-4.6c0-.4-.1-.8-.2-1.1l-1.4-3.4c-.1-.3-.3-.5-.4-.7v-4.1c0-2.9-1.7-5.4-4.4-6.5l-9.8-3.9c.8-.8 1.3-1.8 1.7-2.8l2.8-1.4c1-.5 1.7-1.5 1.7-2.7v-.8c0-1.7-1.3-3-3-3h-1v-2h1c1.7 0 3-1.3 3-3s-1.3-3-3-3h-.1l-.5-5.6c-.3-3.6-3.3-6.4-7-6.4h-1.3c-.4-1.2-1.6-2-2.8-2h-2.6c-1.3 0-2.4.8-2.8 2h-1.3c-3.6 0-6.7 2.8-7 6.4l-.5 5.6h-.1c-1.7 0-3 1.3-3 3s1.3 3 3 3h1v2h-1c-1.7 0-3 1.3-3 3v.8c0 1.1.6 2.2 1.7 2.7l2.8 1.4c.4 1 .9 2 1.7 2.8l-7.2 2.9c-4.3 1.6-7 5.7-7 10.2v14.2zm14-3c0 .6-.4 1-1 1h-10v-5h5v2h2v-2h4zm-1.4-8.4.9 2.4h-10.8l-1.2-3h10.2c.4 0 .7.2.9.6zm-.6-2.6c-.1 0-.2 0-.4 0h-11.6v-1c0-.6.4-1 1-1h10c.6 0 1 .4 1 1zm-11.5 5h-2l1-2.6zm7-13.1 1.3.5c1.6.6 2.7 2 3.1 3.7-.3 0-.6-.1-.9-.1h-4.6zm-4.5-13.9c.6 0 1 .4 1 1v.8c0 .4-.2.7-.6.9l-1.4.7c0-.1 0-.1 0-.2v-3.2zm-23.5-15.4c.3-2.6 2.4-4.6 5-4.6h1l-.5 2.8v4.2h2v-3.9l.7-4.2c.1-.5.5-.8 1-.8h2.6c.5 0 .9.4 1 .8l.7 4.2v3.9h2v-4l-.5-3h1c2.6 0 4.8 2 5 4.6l.5 5.4h-21.9zm-2.9 18.1c-.3-.2-.6-.5-.6-.9v-.8c0-.6.4-1 1-1h1v3.2.2zm.4-8.7c-.6 0-1-.4-1-1s.4-1 1-1h26c.6 0 1 .4 1 1s-.4 1-1 1zm3 9.2v-7.2h20v7.2c0 2.1-1 4-2.8 5.1l-1.9 1.2c-3.3 2.1-7.5 2.1-10.7 0l-1.9-1.2c-1.7-1.1-2.7-3.1-2.7-5.1zm1.9 6.9 1.6 1c3.9 2.5 9 2.5 12.9 0l1.6-1 1.9.8-2.5 3.1c-.5.6-1.4 1-2.3 1h-10.2c-.9 0-1.7-.4-2.3-1.1l-2.6-3zm-6.9 23.9h-7v-12.2c0-3.2 1.7-6.2 4.5-7.8l2.2 8c.2.8.3 1.6.3 2.4zm21.2 0h-19.2v-9.7c0-1-.1-2-.4-2.9l-2.3-8.3 3.7-1.5 3 3.6c.9 1.1 2.4 1.8 3.8 1.8h10.3c1.5 0 2.9-.7 3.8-1.8l3-3.6 3.7 1.5-1.3 4.9h-3.3c-1.7 0-3 1.3-3 3v1.8l-1.8 4.5c-.1.3-.2.7-.2 1.1v4.6c0 .3.1.7.2 1zm1.8-1v-4h3v5h-2c-.6 0-1-.4-1-1z"/></svg>