<svg fill="white" id="Capa_1" enable-background="new 0 0 512 512" height="512" viewBox="0 0 512 512" width="512" xmlns="http://www.w3.org/2000/svg"><g><path d="m512 6.128h-210v300h90v90h-61v30h91v-120h90zm-30 270h-60v-30h-30v30h-60v-240h150z"/><path d="m120 306.128h90v-141.213l-105-105-105 105v141.213h90v120h90.999v-30h-60.999zm38.787-150h-107.574l53.787-53.787zm-128.787 120v-90h150v90h-60v-30h-30v30z"/><path d="m362 66.128h30v30h-30z"/><path d="m422 66.128h30v30h-30z"/><path d="m362 126.128h30v30h-30z"/><path d="m422 126.128h30v30h-30z"/><path d="m362 186.128h30v30h-30z"/><path d="m422 186.128h30v30h-30z"/><path d="m270.23 325.872-28.46-9.487-36.582 109.743h60l-23.418 70.257 28.46 9.487 36.582-109.744h-60z"/></g></svg>