<?xml version="1.0" encoding="iso-8859-1"?>
<!-- Generator: Adobe Illustrator 19.0.0, SVG Export Plug-In . SVG Version: 6.00 Build 0)  -->
<svg fill="white" version="1.1" id="Capa_1" xmlns="http://www.w3.org/2000/svg" xmlns:xlink="http://www.w3.org/1999/xlink" x="0px" y="0px"
	 viewBox="0 0 480.01 480.01" style="enable-background:new 0 0 480.01 480.01;" xml:space="preserve">
<g>
	<g>
		<path d="M472.01,64.005h-72v-56c0-4.416-3.576-8-8-8h-80c-0.768,0-1.456,0.232-2.16,0.44l-0.04-0.128l-224,64l0.032,0.12
			c-1.296,0.368-2.528,0.944-3.496,1.912l-80,80c-2.288,2.288-2.976,5.728-1.736,8.72c1.24,2.984,4.168,4.936,7.4,4.936h112v36.688
			L2.354,314.349c-2.288,2.288-2.976,5.728-1.736,8.72c1.232,2.984,4.16,4.936,7.392,4.936h240c3.232,0,6.16-1.952,7.392-4.936
			c1.24-2.992,0.552-6.432-1.736-8.72l-29.656-29.656v-84.688c0-4.416-3.576-8-8-8h-48c-4.424,0-8,3.584-8,8v20.688l-24-24v-36.688
			h168v312c0,4.416,3.576,8,8,8h80c4.424,0,8-3.584,8-8v-312h72c4.424,0,8-3.584,8-8v-80
			C480.01,67.589,476.434,64.005,472.01,64.005z M64.01,144.005H27.322l36.688-36.688V144.005z M80.01,91.317l11.312-11.312h41.376
			L80.01,132.693V91.317z M162.354,245.661c2.296,2.296,5.736,2.976,8.72,1.736c2.992-1.24,4.936-4.16,4.936-7.392v-32h32v80
			c0,2.12,0.84,4.16,2.344,5.656l18.344,18.344H27.322L128.01,211.317L162.354,245.661z M144.01,144.005H91.322l52.688-52.688
			V144.005z M224.01,144.005h-52.688l52.688-52.688V144.005z M160.01,132.693V80.005h52.688L160.01,132.693z M304.01,144.005
			h-52.688l52.688-52.688V144.005z M240.01,132.693V80.005h52.688L240.01,132.693z M304.01,64.005H145.122L304.01,18.613V64.005z
			 M320.01,16.005h36.688L320.01,52.693V16.005z M320.01,80.005h52.688l-52.688,52.688V80.005z M320.01,160.005h52.688
			l-52.688,52.688V160.005z M320.01,240.005h52.688l-52.688,52.688V240.005z M320.01,320.005h52.688l-52.688,52.688V320.005z
			 M320.01,400.005h52.688l-52.688,52.688V400.005z M384.01,464.005h-52.688l52.688-52.688V464.005z M384.01,384.005h-52.688
			l52.688-52.688V384.005z M384.01,304.005h-52.688l52.688-52.688V304.005z M384.01,224.005h-52.688l52.688-52.688V224.005z
			 M384.01,144.005h-52.688l52.688-52.688V144.005z M384.01,64.005h-52.688l48-48h4.688V64.005z M400.01,80.005h52.688
			l-52.688,52.688V80.005z M464.01,144.005h-52.688l52.688-52.688V144.005z"/>
	</g>
</g>
<g>
	<g>
		<path d="M248.01,360.005h-240c-4.424,0-8,3.584-8,8v104c0,4.416,3.576,8,8,8h96h48h96c4.424,0,8-3.584,8-8v-104
			C256.01,363.589,252.434,360.005,248.01,360.005z M144.01,464.005h-32v-56h32V464.005z M240.01,464.005h-80v-64
			c0-4.416-3.576-8-8-8h-48c-4.424,0-8,3.584-8,8v64h-80v-88h224V464.005z"/>
	</g>
</g>
<g>
	<g>
		<rect x="416.01" y="176.005" width="16" height="16"/>
	</g>
</g>
<g>
	<g>
		<rect x="416.01" y="208.005" width="16" height="16"/>
	</g>
</g>
<g>
	<g>
		<rect x="416.01" y="240.005" width="16" height="16"/>
	</g>
</g>
<g>
</g>
<g>
</g>
<g>
</g>
<g>
</g>
<g>
</g>
<g>
</g>
<g>
</g>
<g>
</g>
<g>
</g>
<g>
</g>
<g>
</g>
<g>
</g>
<g>
</g>
<g>
</g>
<g>
</g>
</svg>
